<svg width="300" height="300" viewBox="0 0 300 300" xmlns="http://www.w3.org/2000/svg">
  <!-- Yellow sun/circle -->
  <circle cx="150" cy="70" r="45" fill="#FCD97C"/>
  
  <!-- Teal house roof -->
  <path d="M50 130 C50 110, 70 90, 100 80 C130 70, 170 70, 200 80 C230 90, 250 110, 250 140 C250 160, 240 180, 220 200 C200 220, 170 230, 150 230 C130 230, 100 220, 80 200 C60 180, 50 160, 50 140 Z" fill="#2E8B83"/>
  
  <!-- Orange house base -->
  <path d="M70 200 C70 180, 80 160, 100 150 C120 140, 150 140, 180 150 C200 160, 220 180, 230 200 C230 220, 225 240, 210 260 C195 280, 175 290, 150 290 C125 290, 105 280, 90 260 C75 240, 70 220, 70 200 Z" fill="#F0833F"/>
  
  <!-- White windows/cutouts -->
  <path d="M180 250 C180 240, 190 235, 200 240 C210 245, 215 255, 210 265 C205 275, 195 280, 185 275 C175 270, 175 260, 180 250 Z" fill="white"/>
  <path d="M220 250 C220 240, 230 235, 240 240 C250 245, 255 255, 250 265 C245 275, 235 280, 225 275 C215 270, 215 260, 220 250 Z" fill="white"/>
</svg>
